<svg xmlns="http://www.w3.org/2000/svg" width="68.699" height="59.113" viewBox="0 0 68.699 59.113">
  <path id="computer_1_" data-name="computer (1)" d="M1.25,12.037A8.787,8.787,0,0,1,10.037,3.25H61.162a8.787,8.787,0,0,1,8.787,8.787V43.99a8.787,8.787,0,0,1-8.787,8.787H42.672l2.4,4.793h6.507a2.4,2.4,0,0,1,0,4.793H19.623a2.4,2.4,0,1,1,0-4.793H26.13l2.4-4.793H10.037A8.787,8.787,0,0,1,1.25,43.99ZM61.162,47.984H10.037A3.994,3.994,0,0,1,6.043,43.99V12.037a3.994,3.994,0,0,1,3.994-3.994H61.162a3.994,3.994,0,0,1,3.994,3.994V43.99A3.994,3.994,0,0,1,61.162,47.984Z" transform="translate(-1.25 -3.25)" fill="#c3c3c3" fill-rule="evenodd"/>
</svg>
